ply
format ascii 1.0
comment VCGLIB generated
element vertex 350
property float x
property float y
property float z
element face 610
property list uchar int vertex_indices
end_header
0.03187054 0.3960628 0 
0.03873082 0.4433962 0 
0.04905814 0.4874503 0 
0.06495713 0.531067 0 
0.08662968 0.5716218 0 
0.1126994 0.6095284 0 
0.1426468 0.643204 0 
0.1752603 0.6776323 0 
0.2088791 0.7086671 0 
0.2430931 0.7403376 0 
0.2768732 0.7708754 0 
0.3119949 0.8006897 0 
0.3479147 0.8305805 0 
0.3829837 0.8584468 0 
0.419643 0.8875991 0 
0.4554248 0.9154735 0 
0.4921408 0.944711 0 
0.5283211 0.9732276 0 
0.5637671 1.00272 0 
0.5984522 1.033848 0 
0.6318146 1.064964 0 
0.6658264 1.096079 0 
0.6969837 1.130133 0 
0.7334268 1.124347 0 
0.7709638 1.096158 0 
0.808967 1.070142 0 
0.8460053 1.045475 0 
0.8870703 1.020981 0 
0.9271834 0.9981006 0 
0.9671837 0.9742609 0 
1.005771 0.9505762 0 
1.045061 0.9253276 0 
1.082548 0.8984658 0 
1.118456 0.8708661 0 
1.153843 0.8409632 0 
1.187855 0.8098487 0 
1.218953 0.7757682 0 
1.248545 0.7404924 0 
1.277362 0.7037997 0 
1.302251 0.665399 0 
1.323866 0.624786 0 
1.342178 0.5825958 0 
1.356423 0.5390317 0 
1.367051 0.4928291 0 
1.372555 0.4472084 0 
1.374779 0.4013735 0 
1.370741 0.3559747 0 
1.361796 0.3117735 0 
1.347251 0.2675531 0 
1.327404 0.2253906 0 
1.301924 0.1878363 0 
1.269346 0.155359 0 
1.233573 0.1275415 0 
1.193643 0.1034751 0 
1.152317 0.08330306 0 
1.107438 0.06792323 0 
1.062295 0.0593951 0 
1.01668 0.0593951 0 
0.971601 0.06875288 0 
0.9300047 0.0890991 0 
0.8900372 0.1101998 0 
0.8511449 0.1332048 0 
0.8136033 0.1613741 0 
0.7793375 0.1938195 0 
0.7509311 0.2293848 0 
0.7273176 0.2678256 0 
0.7017544 0.2894715 0 
0.6775376 0.2522016 0 
0.6488539 0.2148572 0 
0.6174341 0.1816424 0 
0.5817719 0.1536091 0 
0.5430776 0.1274175 0 
0.5035443 0.1043854 0 
0.4642595 0.07819771 0 
0.4226857 0.05824045 0 
0.3790231 0.04371248 0 
0.3335145 0.033449 0 
0.2877089 0.03042188 0 
0.2418751 0.03336904 0 
0.1972015 0.04484956 0 
0.1558406 0.06547467 0 
0.1215376 0.09447185 0 
0.09550285 0.1326629 0 
0.07310496 0.1739654 0 
0.05577571 0.2166512 0 
0.04340061 0.2595132 0 
0.03536269 0.306323 0 
0.03042188 0.3518763 0 
0.7453739 0.6627873 0 
1.020454 0.452657 0 
0.3965295 0.4300885 0 
0.5030512 0.6451221 0 
0.9793319 0.6822863 0 
0.2800046 0.2475956 0 
0.7265623 0.8688143 0 
0.8132784 0.4633042 0 
0.6013823 0.4672113 0 
1.052665 0.2578848 0 
1.189287 0.3838337 0 
1.137868 0.5902247 0 
0.2150945 0.4197491 0 
0.3382493 0.5911285 0 
0.4480765 0.2662862 0 
0.8901176 0.8258472 0 
0.5750384 0.7983972 0 
0.8968877 0.3187791 0 
0.9223441 0.553861 0 
0.5662824 0.3323637 0 
0.6273941 0.5998561 0 
1.18323 0.2520541 0 
0.1643395 0.3021446 0 
1.233355 0.5063244 0 
1.103007 0.7168329 0 
0.4845802 0.5210878 0 
0.2211516 0.5455444 0 
0.391355 0.7041461 0 
0.8579934 0.7088626 0 
1.010054 0.8012069 0 
0.3697325 0.1666863 0 
0.7221032 0.9877587 0 
0.7051499 0.4075781 0 
0.7158192 0.5255128 0 
0.6859121 0.7609123 0 
0.9410109 0.2135052 0 
0.8227198 0.9286871 0 
0.6175612 0.9039475 0 
0.3110802 0.3570396 0 
0.2212832 0.1542194 0 
0.8136929 0.5741326 0 
1.030616 0.5696248 0 
1.125404 0.4820684 0 
0.916366 0.4253777 0 
0.4632693 0.7873632 0 
0.7949469 0.351049 0 
1.081996 0.3667164 0 
0.3098783 0.4889563 0 
0.5040269 0.4158401 0 
0.7912478 0.7888017 0 
0.5930521 0.6975936 0 
1.108952 0.1739185 0 
1.259601 0.3122359 0 
1.278228 0.4196173 0 
0.9874371 0.3496292 0 
0.5407164 0.241622 0 
0.125689 0.3879725 0 
1.230819 0.6038776 0 
0.1437699 0.4816227 0 
1.018458 0.1553481 0 
0.3053368 0.6749794 0 
0.3950182 0.5221152 0 
0.8549448 0.2397105 0 
0.3994381 0.3390436 0 
0.9612008 0.8760961 0 
0.4233712 0.6079972 0 
0.457016 0.1802236 0 
0.1576988 0.2159975 0 
1.183324 0.6840083 0 
0.2987818 0.1158778 0 
0.9348766 0.754655 0 
0.5370399 0.8737122 0 
0.8831193 0.6288766 0 
0.3619109 0.2642283 0 
0.5648965 0.5432502 0 
1.07232 0.6405586 0 
0.2413661 0.6245562 0 
0.6473864 0.3498979 0 
0.5170651 0.7253784 0 
0.4874884 0.334252 0 
0.2343083 0.3414288 0 
0.6521876 0.8311416 0 
0.6696862 0.6809419 0 
1.087241 0.7980098 0 
1.141142 0.3173853 0 
0.9004456 0.9222949 0 
0.7056045 0.5995257 0 
0.6431912 0.9744714 0 
0.8828023 0.4916782 0 
0.9807344 0.2765654 0 
0.9554697 0.4870318 0 
0.8198353 0.8560797 0 
0.6411412 0.528577 0 
0.9675772 0.6109146 0 
1.18301 0.1800818 0 
0.849036 0.3972835 0 
0.7935156 0.9980264 0 
1.252802 0.2406154 0 
0.6114109 0.276114 0 
0.8142658 0.6495734 0 
0.5930969 0.3976473 0 
1.029254 0.7339268 0 
0.2880264 0.4223678 0 
0.7857705 0.7198596 0 
0.3898745 0.7732585 0 
0.7998332 0.281022 0 
0.152847 0.5495152 0 
1.063355 0.5098931 0 
0.7455013 0.4634496 0 
1.187847 0.4563991 0 
1.27971 0.5552812 0 
0.6773833 0.4702741 0 
0.6833586 0.9204923 0 
0.5694876 0.6333774 0 
0.1018 0.3248343 0 
1.299412 0.4825856 0 
0.5354972 0.4755784 0 
0.3013512 0.1847172 0 
0.2144897 0.2573664 0 
0.7534731 0.9293371 0 
0.3335235 0.7352365 0 
0.2404215 0.4828254 0 
0.2870032 0.5503987 0 
1.11902 0.2399346 0 
1.172048 0.5286327 0 
1.13209 0.4151806 0 
0.4554979 0.6936609 0 
0.5111407 0.5809834 0 
0.4511608 0.4643082 0 
1.161158 0.747218 0 
0.7211208 1.05221 0 
0.4456733 0.3885536 0 
0.4171421 0.1235061 0 
0.7300472 0.3485336 0 
1.029367 0.8622515 0 
0.4748599 0.8498726 0 
0.7789628 0.519087 0 
0.1067119 0.2563283 0 
0.6227246 0.7567109 0 
0.1563106 0.1527512 0 
1.3078 0.3555571 0 
0.7305706 0.8064525 0 
0.8571122 0.7712467 0 
0.407073 0.2195507 0 
0.9172695 0.6853777 0 
0.3657392 0.6467569 0 
0.7781605 0.4105964 0 
0.9513234 0.1526198 0 
1.006137 0.2173132 0 
1.070257 0.1222986 0 
0.8875967 0.1834366 0 
1.043226 0.3183344 0 
0.3579493 0.1028 0 
0.5173761 0.1828144 0 
0.2350312 0.09317902 0 
0.9507655 0.816968 0 
1.131309 0.650596 0 
0.1877027 0.5984008 0 
1.078881 0.4416775 0 
0.9738266 0.4113474 0 
1.201196 0.3212055 0 
0.9317838 0.3679308 0 
0.09888251 0.4439759 0 
1.029057 0.3921658 0 
0.7269775 0.7181711 0 
0.3108579 0.298771 0 
0.1767748 0.3600117 0 
1.245971 0.3704958 0 
0.7628216 0.6080545 0 
0.8644982 0.9681669 0 
0.9098754 0.2617236 0 
0.5170667 0.8072704 0 
0.6483113 0.4211689 0 
1.087154 0.5624102 0 
1.004228 0.516206 0 
0.5933087 0.852146 0 
0.5650341 0.9249803 0 
0.8662754 0.5490125 0 
0.3450156 0.4019263 0 
1.016574 0.6375602 0 
1.059185 0.2006152 0 
0.2408819 0.2086287 0 
0.6689261 1.024093 0 
1.23356 0.658772 0 
0.5259523 0.2950781 0 
0.362964 0.4763058 0 
0.4851371 0.2267041 0 
1.179658 0.624534 0 
0.8437019 0.3275347 0 
0.3387668 0.5362459 0 
0.1624419 0.4314077 0 
1.148916 0.136763 0 
0.8711589 0.8775238 0 
0.4412052 0.5521914 0 
0.2518198 0.6770134 0 
1.094235 0.291063 0 
0.4226812 0.8216352 0 
0.6221913 0.6540149 0 
0.1916323 0.5024027 0 
0.5418419 0.3799337 0 
0.3461411 0.2131897 0 
0.5680313 0.7469184 0 
0.2932563 0.6231471 0 
0.2545092 0.2927712 0 
1.294409 0.2711873 0 
0.428828 0.7394825 0 
1.047496 0.6859474 0 
0.5435176 0.6818175 0 
0.7766695 0.8840441 0 
1.227269 0.417702 0 
0.5938051 0.2265006 0 
0.1822176 0.1087304 0 
0.9784076 0.5597784 0 
0.8291321 0.5126005 0 
0.3857749 0.5742611 0 
0.8607349 0.446265 0 
1.235548 0.1924197 0 
0.9480225 0.3145595 0 
0.4157917 0.6571937 0 
0.07905158 0.3690487 0 
0.9883788 0.1154969 0 
0.9855651 0.7574039 0 
1.215066 0.5531179 0 
1.142447 0.3669334 0 
0.959875 0.9253249 0 
1.324558 0.4356002 0 
0.4042069 0.2889113 0 
0.7502854 0.5602008 0 
0.771686 0.8335994 0 
0.7692839 1.041986 0 
0.6689751 0.631495 0 
0.2609599 0.382081 0 
0.3557954 0.316963 0 
0.5614558 0.4341548 0 
0.1108978 0.2040009 0 
1.279597 0.6059427 0 
0.6689568 0.5677921 0 
1.137977 0.7957771 0 
0.8065574 0.2336179 0 
1.251903 0.4595985 0 
0.1121177 0.5232118 0 
0.660477 0.8781666 0 
1.223263 0.2780929 0 
0.7510365 0.7631082 0 
1.124659 0.5325319 0 
0.5968685 0.9640664 0 
0.288221 0.721414 0 
0.6548783 0.2960119 0 
0.4654542 0.1337221 0 
0.7546054 0.3081747 0 
0.4704686 0.6099498 0 
1.072096 0.7525451 0 
1.203799 0.7259451 0 
1.075946 0.8432827 0 
0.9297466 0.6382205 0 
0.4429938 0.3205723 0 
0.8334469 0.8116277 0 
0.8854052 0.3682204 0 
0.9163473 0.8661795 0 
0.4745902 0.7424978 0 
0.8677028 0.2836901 0 
0.9999307 0.9000394 0 
3 132 223 284 
3 329 125 263 
3 154 336 241 
3 174 88 318 
3 341 171 325 
3 126 320 266 
3 11 208 192 
3 286 194 146 
3 324 318 108 
3 102 314 231 
3 121 315 174 
3 201 215 162 
3 241 274 154 
3 115 148 233 
3 264 17 16 
3 14 13 284 
3 115 192 208 
3 281 302 149 
3 169 329 263 
3 223 14 284 
3 296 94 316 
3 121 174 324 
3 124 184 207 
3 200 125 329 
3 349 222 31 
3 19 18 333 
3 191 331 252 
3 163 244 112 
3 186 143 298 
3 267 181 129 
3 71 241 72 
3 129 163 267 
3 280 346 173 
3 217 156 340 
3 141 255 228 
3 102 231 274 
3 161 93 288 
3 127 227 299 
3 299 80 79 
3 77 76 157 
3 269 127 205 
3 205 157 118 
3 205 288 93 
3 118 157 240 
3 118 240 220 
3 235 238 60 
3 165 188 107 
3 241 336 72 
3 268 147 237 
3 209 100 190 
3 254 202 110 
3 126 291 253 
3 288 231 161 
3 188 287 107 
3 320 151 266 
3 188 96 321 
3 167 343 102 
3 253 291 93 
3 110 225 155 
3 269 155 127 
3 100 168 319 
3 253 93 161 
3 110 155 206 
3 225 322 155 
3 286 114 194 
3 250 0 307 
3 146 250 278 
3 210 114 209 
3 100 319 190 
3 208 10 334 
3 334 10 9 
3 9 8 282 
3 7 164 282 
3 282 164 290 
3 210 101 290 
3 12 11 192 
3 9 282 334 
3 259 347 166 
3 208 334 148 
3 333 18 17 
3 175 333 125 
3 175 19 333 
3 184 317 119 
3 270 21 20 
3 223 15 14 
3 13 12 284 
3 233 302 153 
3 113 281 216 
3 233 101 302 
3 136 219 167 
3 188 260 96 
3 306 338 214 
3 170 318 88 
3 170 138 285 
3 96 199 180 
3 193 65 64 
3 342 181 92 
3 122 226 170 
3 256 315 128 
3 128 265 160 
3 117 171 341 
3 88 256 187 
3 316 94 229 
3 200 175 125 
3 296 124 207 
3 317 24 218 
3 331 191 137 
3 173 28 257 
3 184 124 257 
3 230 344 137 
3 341 325 34 
3 152 222 349 
3 243 158 309 
3 243 309 117 
3 325 35 34 
3 32 222 341 
3 244 163 99 
3 275 244 99 
3 325 217 35 
3 203 327 141 
3 323 271 145 
3 197 212 130 
3 340 156 271 
3 145 310 198 
3 310 111 198 
3 193 326 150 
3 213 134 311 
3 313 141 228 
3 52 182 53 
3 323 198 41 
3 260 165 120 
3 228 140 292 
3 128 315 224 
3 326 193 64 
3 246 251 134 
3 178 300 106 
3 62 150 326 
3 177 236 97 
3 240 74 220 
3 62 61 238 
3 348 276 193 
3 249 345 105 
3 193 133 337 
3 311 172 248 
3 237 56 55 
3 330 248 109 
3 238 123 258 
3 57 56 237 
3 239 283 134 
3 292 185 49 
3 308 57 237 
3 211 109 172 
3 182 279 53 
3 82 227 322 
3 81 80 299 
3 242 157 127 
3 127 155 227 
3 82 81 227 
3 84 225 85 
3 83 322 84 
3 84 322 225 
3 83 82 322 
3 110 202 225 
3 322 227 155 
3 205 127 157 
3 227 81 299 
3 291 206 93 
3 291 168 110 
3 242 127 299 
3 205 93 269 
3 206 269 93 
3 206 155 269 
3 77 157 242 
3 79 242 299 
3 79 78 242 
3 77 242 78 
3 240 76 75 
3 74 240 75 
3 157 76 240 
3 73 220 74 
3 154 220 336 
3 231 288 118 
3 336 220 73 
3 336 73 72 
3 58 57 308 
3 241 70 298 
3 70 69 298 
3 298 143 241 
3 272 167 102 
3 68 298 69 
3 186 107 272 
3 67 186 68 
3 335 165 186 
3 154 118 220 
3 288 205 118 
3 143 272 274 
3 314 161 231 
3 231 154 274 
3 231 118 154 
3 70 241 71 
3 143 274 241 
3 274 272 102 
3 90 219 216 
3 102 343 314 
3 135 277 210 
3 287 167 107 
3 136 321 204 
3 186 272 143 
3 107 167 272 
3 68 186 298 
3 67 66 335 
3 186 165 107 
3 183 95 234 
3 67 335 186 
3 66 165 335 
3 66 221 165 
3 66 65 337 
3 204 216 136 
3 266 90 273 
3 260 188 165 
3 321 287 188 
3 221 120 165 
3 199 96 260 
3 260 120 199 
3 221 133 234 
3 167 219 343 
3 167 287 136 
3 96 204 321 
3 149 277 273 
3 219 136 216 
3 287 321 136 
3 180 162 96 
3 215 201 91 
3 286 100 209 
3 144 307 202 
3 168 291 126 
3 273 90 216 
3 319 126 190 
3 151 343 219 
3 149 273 216 
3 266 151 90 
3 314 320 161 
3 126 319 168 
3 320 126 253 
3 266 190 126 
3 161 320 253 
3 314 343 151 
3 90 151 219 
3 320 314 151 
3 86 85 202 
3 85 225 202 
3 144 202 254 
3 87 86 202 
3 291 110 206 
3 168 100 254 
3 1 0 250 
3 87 202 307 
3 168 254 110 
3 100 278 254 
3 286 278 100 
3 250 307 144 
3 87 307 0 
3 278 144 254 
3 278 250 144 
3 1 250 2 
3 4 328 194 
3 2 250 328 
3 286 146 278 
3 328 250 146 
3 114 286 209 
3 194 245 5 
3 190 135 209 
3 190 266 273 
3 135 273 277 
3 135 190 273 
3 204 113 216 
3 302 277 149 
3 149 216 281 
3 121 180 199 
3 135 210 209 
3 245 6 5 
3 302 101 277 
3 164 114 210 
3 290 101 233 
3 210 277 101 
3 215 91 338 
3 153 302 281 
3 2 328 3 
3 3 328 4 
3 146 194 328 
3 114 164 245 
3 114 245 194 
3 164 7 245 
3 4 194 5 
3 334 282 148 
3 8 7 282 
3 282 290 148 
3 164 210 290 
3 115 233 306 
3 148 290 233 
3 6 245 7 
3 115 208 148 
3 11 10 208 
3 293 132 192 
3 284 12 192 
3 159 15 223 
3 104 159 259 
3 284 192 132 
3 214 347 293 
3 166 289 259 
3 259 159 223 
3 159 264 16 
3 214 293 115 
3 347 132 293 
3 214 115 306 
3 293 192 115 
3 338 153 281 
3 306 233 153 
3 153 338 306 
3 91 166 214 
3 113 215 281 
3 91 214 338 
3 132 259 223 
3 125 333 264 
3 263 264 159 
3 333 17 264 
3 226 169 104 
3 125 264 263 
3 104 169 263 
3 229 94 169 
3 159 16 15 
3 270 19 175 
3 270 20 19 
3 22 21 218 
3 23 22 218 
3 119 218 270 
3 94 329 169 
3 94 207 200 
3 200 119 175 
3 218 21 270 
3 94 200 329 
3 207 119 200 
3 175 119 270 
3 207 184 119 
3 169 226 122 
3 289 295 138 
3 252 122 170 
3 138 295 201 
3 88 252 170 
3 229 169 122 
3 187 191 88 
3 331 122 252 
3 214 166 347 
3 295 289 166 
3 347 259 132 
3 104 263 159 
3 289 104 259 
3 289 226 104 
3 226 138 170 
3 226 289 138 
3 281 215 338 
3 295 166 91 
3 204 162 113 
3 201 108 285 
3 113 162 215 
3 204 96 162 
3 91 201 295 
3 162 180 108 
3 285 108 318 
3 201 162 108 
3 170 285 318 
3 138 201 285 
3 180 121 324 
3 256 88 174 
3 318 324 174 
3 108 180 324 
3 120 196 199 
3 183 133 276 
3 174 315 256 
3 95 301 224 
3 121 224 315 
3 121 199 196 
3 256 128 187 
3 89 178 247 
3 224 301 128 
3 224 196 95 
3 342 160 106 
3 128 301 265 
3 178 106 176 
3 265 176 106 
3 189 339 117 
3 160 187 128 
3 261 163 129 
3 181 106 300 
3 267 294 92 
3 137 344 316 
3 116 160 232 
3 106 181 342 
3 92 158 232 
3 346 152 312 
3 342 92 232 
3 294 112 339 
3 122 331 229 
3 252 88 191 
3 160 116 187 
3 103 230 158 
3 187 116 191 
3 232 158 116 
3 106 160 265 
3 342 232 160 
3 331 137 229 
3 296 207 94 
3 179 296 316 
3 179 124 296 
3 229 137 316 
3 191 116 230 
3 316 344 179 
3 137 191 230 
3 119 317 218 
3 184 26 25 
3 218 24 23 
3 317 25 24 
3 317 184 25 
3 280 124 179 
3 257 26 184 
3 173 257 124 
3 27 26 257 
3 28 27 257 
3 280 173 124 
3 312 28 173 
3 28 312 29 
3 173 346 312 
3 243 117 152 
3 344 280 179 
3 346 243 152 
3 158 230 116 
3 158 243 103 
3 344 103 280 
3 344 230 103 
3 103 346 280 
3 103 243 346 
3 92 309 158 
3 339 112 325 
3 92 189 309 
3 294 163 112 
3 92 294 189 
3 92 181 267 
3 117 339 171 
3 189 294 339 
3 312 349 30 
3 312 152 349 
3 312 30 29 
3 152 117 222 
3 309 189 117 
3 349 31 30 
3 32 341 33 
3 222 117 341 
3 222 32 31 
3 339 325 171 
3 112 156 217 
3 341 34 33 
3 35 217 36 
3 325 112 217 
3 217 340 36 
3 323 145 198 
3 340 37 36 
3 340 38 37 
3 340 271 38 
3 156 275 271 
3 271 323 39 
3 198 111 203 
3 271 39 38 
3 323 40 39 
3 300 129 181 
3 163 294 267 
3 156 244 275 
3 156 112 244 
3 332 99 261 
3 310 145 275 
3 310 275 99 
3 145 271 275 
3 89 262 178 
3 261 99 163 
3 262 129 300 
3 262 89 195 
3 262 195 129 
3 212 310 99 
3 195 261 129 
3 332 212 99 
3 195 130 332 
3 297 197 98 
3 195 332 261 
3 195 246 130 
3 323 41 40 
3 203 111 327 
3 310 212 111 
3 198 42 41 
3 45 313 228 
3 130 212 332 
3 43 203 313 
3 42 198 203 
3 43 313 44 
3 203 141 313 
3 203 43 42 
3 327 297 141 
3 248 140 255 
3 45 228 46 
3 255 140 228 
3 228 47 46 
3 313 45 44 
3 142 239 251 
3 98 248 255 
3 251 239 134 
3 109 182 304 
3 98 311 248 
3 134 172 311 
3 297 98 255 
3 197 111 212 
3 213 130 246 
3 197 327 111 
3 134 213 246 
3 311 98 213 
3 213 197 130 
3 213 98 197 
3 141 297 255 
3 327 197 297 
3 178 176 131 
3 265 301 176 
3 247 178 131 
3 262 300 178 
3 345 249 131 
3 251 246 89 
3 251 89 247 
3 246 195 89 
3 121 196 224 
3 120 221 234 
3 196 234 95 
3 196 120 234 
3 133 183 234 
3 303 301 95 
3 176 303 131 
3 176 301 303 
3 221 337 133 
3 221 66 337 
3 105 276 348 
3 131 303 183 
3 345 183 276 
3 303 95 183 
3 105 345 276 
3 131 183 345 
3 258 305 105 
3 142 247 249 
3 305 249 105 
3 247 131 249 
3 247 142 251 
3 236 123 235 
3 249 305 142 
3 105 348 258 
3 305 177 142 
3 283 172 134 
3 150 238 258 
3 235 147 236 
3 142 177 239 
3 305 258 177 
3 268 236 147 
3 177 123 236 
3 211 283 97 
3 239 177 97 
3 326 64 63 
3 133 193 276 
3 337 65 193 
3 193 150 348 
3 326 63 62 
3 150 258 348 
3 123 177 258 
3 60 59 235 
3 62 238 150 
3 61 60 238 
3 59 308 235 
3 58 308 59 
3 147 235 308 
3 123 238 235 
3 211 268 139 
3 97 236 268 
3 279 237 55 
3 268 237 139 
3 147 308 237 
3 279 55 54 
3 53 279 54 
3 139 237 279 
3 97 283 239 
3 97 268 211 
3 279 182 139 
3 172 283 211 
3 185 109 304 
3 211 139 182 
3 172 109 248 
3 211 182 109 
3 185 330 109 
3 140 248 330 
3 50 185 304 
3 292 330 185 
3 228 292 47 
3 140 330 292 
3 292 48 47 
3 292 49 48 
3 185 50 49 
3 304 182 52 
3 304 52 51 
3 304 51 50 
