ply
format ascii 1.0
comment VCGLIB generated
element vertex 300
property float x
property float y
property float z
element face 522
property list uchar int vertex_indices
end_header
0.1244317 0.4875518 0 
0.1405167 0.5429598 0 
0.1658041 0.5885668 0 
0.2015368 0.62808 0 
0.2518496 0.6606587 0 
0.2989491 0.6873325 0 
0.3233565 0.738275 0 
0.3199723 0.7896839 0 
0.3184302 0.8494714 0 
0.3247178 0.9049037 0 
0.3375962 0.9572184 0 
0.3575175 1.009034 0 
0.3851468 1.060184 0 
0.4148892 1.102059 0 
0.4535297 1.144415 0 
0.4959811 1.180604 0 
0.5452625 1.212455 0 
0.5952986 1.236164 0 
0.6479532 1.253544 0 
0.702448 1.264346 0 
0.7576818 1.268147 0 
0.8136116 1.26475 0 
0.8670626 1.254761 0 
0.9184136 1.238387 0 
0.9699093 1.214472 0 
1.017203 1.184726 0 
1.060362 1.149285 0 
1.099087 1.108418 0 
1.131472 1.064543 0 
1.160071 1.013369 0 
1.179145 0.9658353 0 
1.193937 0.90799 0 
1.200505 0.8527656 0 
1.200067 0.7970577 0 
1.196357 0.7415066 0 
1.214948 0.6934142 0 
1.262329 0.6637431 0 
1.310166 0.6343772 0 
1.350763 0.5924927 0 
1.378444 0.544436 0 
1.394409 0.4915894 0 
1.399155 0.4362564 0 
1.393006 0.3808222 0 
1.376313 0.3273539 0 
1.350891 0.2791248 0 
1.316839 0.2360188 0 
1.275384 0.199759 0 
1.228092 0.171346 0 
1.173474 0.1506312 0 
1.118863 0.1410058 0 
1.063196 0.141523 0 
1.008367 0.1522987 0 
0.9602972 0.1728036 0 
0.913904 0.2076726 0 
0.8795574 0.2509629 0 
0.8560639 0.3028452 0 
0.8357034 0.3514588 0 
0.7884688 0.3830839 0 
0.7332684 0.3835258 0 
0.6871431 0.3564136 0 
0.6643581 0.3050266 0 
0.6417326 0.2537262 0 
0.6104005 0.2129062 0 
0.5667615 0.1777715 0 
0.5160207 0.1538462 0 
0.4616838 0.1418154 0 
0.4030869 0.1410215 0 
0.3480127 0.1502426 0 
0.2952042 0.1690683 0 
0.2491416 0.1956817 0 
0.207399 0.2311096 0 
0.1720451 0.2740472 0 
0.1435438 0.3257476 0 
0.1269036 0.3784809 0 
0.1205629 0.433641 0 
0.1243027 0.486821 0 
0.7574574 0.8201563 0 
0.4115695 0.4256422 0 
1.104814 0.4303619 0 
0.5923176 0.613485 0 
0.9233983 0.6144307 0 
0.7645725 1.043038 0 
0.970466 0.8908303 0 
0.5686954 0.9388579 0 
0.4994759 0.7680796 0 
0.7623715 0.5606076 0 
1.084738 0.5968791 0 
0.4206395 0.5857465 0 
0.9300324 1.054783 0 
0.95124 0.4599276 0 
1.024586 0.7383013 0 
0.5607658 0.4584875 0 
0.2895004 0.5076712 0 
1.031225 0.303481 0 
1.248358 0.4771977 0 
0.4569862 0.2853492 0 
1.186934 0.3134212 0 
0.8830523 0.7532973 0 
0.3128082 0.3237737 0 
0.63243 1.089401 0 
0.6368538 0.7546005 0 
0.8398556 0.9291355 0 
0.7535382 0.687901 0 
0.6921458 0.9362502 0 
0.4525035 0.8786581 0 
0.8391858 1.133434 0 
0.5209306 1.045317 0 
1.037723 0.9852139 0 
0.6805848 0.4813528 0 
0.7315305 1.154019 0 
0.8443694 0.4837324 0 
1.079709 0.88397 0 
0.5401711 0.3501068 0 
1.187518 0.5739262 0 
1.280447 0.3684315 0 
0.2304506 0.3905169 0 
1.039468 0.5066376 0 
0.5689382 0.8384537 0 
0.4906407 0.6705006 0 
0.5111482 0.5482606 0 
1.118723 0.2431617 0 
0.9368124 0.3647469 0 
1.110561 0.7030495 0 
0.4589794 0.9770353 0 
0.4000123 0.6845782 0 
0.8354825 0.6396971 0 
0.6905291 0.6153652 0 
0.8459519 0.8397042 0 
0.3315521 0.5951848 0 
0.3157896 0.4171148 0 
0.6702173 0.8380728 0 
0.9574736 0.8035148 0 
1.096674 0.7896004 0 
0.3770599 0.5053113 0 
1.021026 0.3891479 0 
1.009857 0.6534922 0 
0.9266495 0.9644994 0 
1.013455 1.077651 0 
0.3816578 0.2288297 0 
0.8532307 1.013245 0 
0.4041307 0.7973503 0 
1.183245 0.3991108 0 
1.108301 0.3425114 0 
0.6275318 0.9985661 0 
1.132874 0.5106242 0 
0.2112785 0.4717166 0 
0.6144672 0.5320279 0 
0.919723 1.149787 0 
0.7653421 0.4604488 0 
0.6145691 0.3917022 0 
0.5490362 0.2699209 0 
0.4912839 0.4176702 0 
0.9522631 0.2840934 0 
0.5663164 0.7188652 0 
0.8517439 0.5615839 0 
0.9611036 0.5375001 0 
0.6427361 1.166887 0 
0.7986274 0.7540074 0 
0.5531768 1.115633 0 
0.7675183 0.955888 0 
1.316104 0.4405207 0 
0.3856692 0.345666 0 
1.020169 0.2267937 0 
0.9310266 0.6957026 0 
0.6500641 0.6782963 0 
0.8853955 0.4219035 0 
1.306364 0.5273628 0 
0.2410869 0.3054763 0 
0.4502356 0.4877586 0 
0.6886937 1.042928 0 
1.144436 0.6382905 0 
0.2479243 0.5663517 0 
0.6261881 0.8947825 0 
1.224848 0.2525015 0 
0.4707846 0.2129068 0 
0.7150305 0.7482144 0 
1.257697 0.5859889 0 
0.9000077 0.8866051 0 
0.2899987 0.2532272 0 
0.7885044 0.8824 0 
1.108018 0.9472034 0 
0.3935546 0.9125613 0 
0.8130957 1.196849 0 
1.023241 0.8199685 0 
0.6945406 0.5485484 0 
1.287528 0.2991769 0 
0.5194877 0.8793036 0 
1.130741 0.8458085 0 
1.176271 0.4652312 0 
0.9969087 0.5887761 0 
0.4778352 0.3516704 0 
0.44375 0.728743 0 
0.5843554 1.050916 0 
0.7599435 0.622027 0 
0.5906622 0.3151457 0 
1.075606 1.039741 0 
0.7189639 0.8742726 0 
0.6211457 0.4524204 0 
0.8335652 1.073036 0 
0.4790539 1.0902 0 
1.212203 0.6309426 0 
0.9918791 0.946807 0 
0.9794949 1.138505 0 
0.440465 1.038387 0 
0.5182503 0.9755166 0 
0.4777139 0.6127101 0 
0.3689374 0.2890672 0 
0.9876588 1.01605 0 
0.7154193 0.990648 0 
0.8540068 0.7024639 0 
0.6711494 0.422396 0 
0.572375 0.7768667 0 
0.2013625 0.5312573 0 
1.240206 0.4115209 0 
0.7608433 1.101022 0 
0.7351366 1.211479 0 
0.9006759 0.8119647 0 
0.6202161 0.810703 0 
1.205797 0.5199504 0 
0.4924166 0.8245326 0 
0.7953924 0.5120813 0 
0.5335838 0.600018 0 
1.018702 0.4455108 0 
0.383093 0.7451589 0 
1.141559 0.7558098 0 
0.5597199 0.5145744 0 
0.6455716 0.581969 0 
1.072813 0.6514783 0 
0.8957871 0.5274183 0 
0.8837489 1.096965 0 
1.024107 0.8806635 0 
0.5890719 0.6692949 0 
0.9093639 0.3175762 0 
0.8071409 0.5936658 0 
1.092596 0.1959148 0 
0.3821643 0.8465062 0 
1.152319 0.2011574 0 
0.9623151 0.7500749 0 
0.8830045 1.198122 0 
0.9698836 0.4067065 0 
1.132932 0.2946603 0 
0.5036361 0.4872764 0 
0.350749 0.6641431 0 
0.5869468 1.179309 0 
0.3260764 0.2124482 0 
1.21981 0.3547058 0 
1.077426 0.2781208 0 
0.6845474 1.09723 0 
0.3299962 0.5427107 0 
0.5236459 0.2240382 0 
0.7025586 0.6761921 0 
0.2790297 0.3711598 0 
0.1934543 0.3535927 0 
0.7070046 0.8010457 0 
0.6830169 1.214044 0 
1.131148 0.573618 0 
0.4215105 0.5314498 0 
0.3886231 0.9646478 0 
0.4790199 0.9227619 0 
0.2644705 0.4287532 0 
0.3689356 0.3937791 0 
1.109612 1.002107 0 
0.1824248 0.4300334 0 
0.2797605 0.618403 0 
0.4262342 0.6359963 0 
1.326982 0.3880981 0 
1.057271 0.6999221 0 
0.7922845 1.000972 0 
1.174512 0.2515045 0 
0.8820277 0.6587055 0 
0.4290985 0.1837709 0 
1.345476 0.4821154 0 
0.7188752 0.442453 0 
0.9344198 0.8508869 0 
1.075893 0.4705553 0 
0.8075756 0.8085172 0 
0.4522456 0.7826 0 
0.9849776 0.6960526 0 
0.9827526 0.3228096 0 
0.3692099 0.450806 0 
0.5057927 1.132396 0 
0.8055912 0.6943418 0 
0.9440644 1.104664 0 
0.3274747 0.4769163 0 
0.4286498 0.2456193 0 
0.7260389 0.5113832 0 
0.5692893 0.4096105 0 
0.5614236 0.9977547 0 
1.06762 0.3688685 0 
1.140502 0.8932436 0 
0.9721197 0.2215685 0 
0.7935699 1.149016 0 
0.6425062 0.630832 0 
0.6358387 0.3437006 0 
0.8825579 0.361453 0 
1.324115 0.329948 0 
0.3744039 0.5740465 0 
1.061717 0.5552794 0 
1.236209 0.2985837 0 
0.8963686 0.4680678 0 
3 214 81 198 
3 203 13 12 
3 76 179 196 
3 98 161 260 
3 133 168 256 
3 194 112 150 
3 151 77 190 
3 190 77 161 
3 181 10 9 
3 99 247 156 
3 14 13 199 
3 192 99 158 
3 280 15 14 
3 154 125 233 
3 91 241 151 
3 195 207 107 
3 254 18 156 
3 136 207 88 
3 282 147 229 
3 111 132 187 
3 18 17 156 
3 90 183 237 
3 230 111 107 
3 236 120 234 
3 30 261 180 
3 195 137 207 
3 200 113 176 
3 232 121 294 
3 129 259 251 
3 178 244 206 
3 174 65 64 
3 174 249 95 
3 95 161 206 
3 61 150 62 
3 112 190 150 
3 64 63 249 
3 174 284 270 
3 91 197 225 
3 150 249 62 
3 61 60 194 
3 168 119 256 
3 194 149 112 
3 92 171 212 
3 221 205 119 
3 7 6 223 
3 79 225 146 
3 126 226 184 
3 212 145 92 
3 283 92 259 
3 129 251 260 
3 104 276 219 
3 283 248 92 
3 223 191 276 
3 241 119 168 
3 119 87 256 
3 263 171 128 
3 171 248 128 
3 7 140 235 
3 223 242 124 
3 104 140 276 
3 181 257 10 
3 280 14 199 
3 203 199 13 
3 280 243 16 
3 106 158 199 
3 243 17 16 
3 106 192 158 
3 99 156 243 
3 99 243 158 
3 156 17 243 
3 211 153 100 
3 214 198 105 
3 146 226 79 
3 118 205 221 
3 88 139 136 
3 117 186 219 
3 126 164 292 
3 100 153 164 
3 204 258 83 
3 80 125 154 
3 100 175 253 
3 100 164 175 
3 250 102 175 
3 101 127 177 
3 287 143 192 
3 76 175 157 
3 169 208 81 
3 97 209 163 
3 88 282 229 
3 215 19 254 
3 105 198 229 
3 267 208 159 
3 105 147 238 
3 147 23 238 
3 198 139 229 
3 101 139 267 
3 137 195 27 
3 229 139 88 
3 198 81 267 
3 82 131 183 
3 237 277 90 
3 136 201 207 
3 261 28 195 
3 289 187 32 
3 35 200 36 
3 237 163 277 
3 209 125 269 
3 122 170 35 
3 166 94 160 
3 42 41 265 
3 85 233 193 
3 193 102 250 
3 193 250 126 
3 175 164 250 
3 220 233 85 
3 125 281 193 
3 237 216 97 
3 157 102 281 
3 272 58 148 
3 155 228 89 
3 278 239 121 
3 162 93 152 
3 297 189 116 
3 80 163 269 
3 114 213 245 
3 141 78 142 
3 113 218 176 
3 245 96 298 
3 185 173 45 
3 185 44 295 
3 70 69 178 
3 206 244 138 
3 252 167 115 
3 71 70 167 
3 72 71 252 
3 71 167 252 
3 262 252 115 
3 73 72 252 
3 262 115 259 
3 260 161 77 
3 167 251 115 
3 167 98 251 
3 70 178 167 
3 206 161 98 
3 133 283 279 
3 251 98 260 
3 167 178 98 
3 69 68 244 
3 206 284 95 
3 69 244 178 
3 68 67 244 
3 66 138 67 
3 67 138 244 
3 66 270 138 
3 138 270 284 
3 66 65 270 
3 174 95 284 
3 150 190 95 
3 65 174 270 
3 249 150 95 
3 64 249 174 
3 63 62 249 
3 60 293 194 
3 272 210 58 
3 60 59 293 
3 152 54 53 
3 57 165 110 
3 178 206 98 
3 138 284 206 
3 95 190 161 
3 151 168 77 
3 61 194 150 
3 293 149 194 
3 59 149 293 
3 59 58 210 
3 112 151 190 
3 286 149 197 
3 112 286 151 
3 197 108 146 
3 151 286 91 
3 112 149 286 
3 286 197 91 
3 149 59 210 
3 285 108 272 
3 197 149 210 
3 146 108 184 
3 197 210 108 
3 285 272 148 
3 108 210 272 
3 197 146 225 
3 79 292 231 
3 184 226 146 
3 126 250 164 
3 108 285 184 
3 220 154 233 
3 168 133 279 
3 256 296 133 
3 256 87 296 
3 124 191 223 
3 151 241 168 
3 91 225 241 
3 87 119 205 
3 241 225 119 
3 171 92 248 
3 145 262 259 
3 296 128 248 
3 133 296 248 
3 87 264 296 
3 145 259 92 
3 115 251 259 
3 279 283 129 
3 283 259 129 
3 260 279 129 
3 133 248 283 
3 77 279 260 
3 77 168 279 
3 73 252 262 
3 74 262 75 
3 75 262 145 
3 74 73 262 
3 75 145 0 
3 0 145 212 
3 1 212 2 
3 2 212 171 
3 1 0 212 
3 2 171 3 
3 171 263 3 
3 263 242 5 
3 242 263 128 
3 4 3 263 
3 296 242 128 
3 87 205 264 
3 296 264 242 
3 205 118 264 
3 153 118 231 
3 191 124 118 
3 225 221 119 
3 231 118 221 
3 84 191 118 
3 276 140 223 
3 181 9 235 
3 276 191 84 
3 153 84 118 
3 219 276 84 
3 263 5 4 
3 242 6 5 
3 7 223 140 
3 6 242 223 
3 264 124 242 
3 264 118 124 
3 7 235 8 
3 104 235 140 
3 9 8 235 
3 186 258 104 
3 123 106 203 
3 11 257 203 
3 123 203 257 
3 11 10 257 
3 104 181 235 
3 104 258 181 
3 11 203 12 
3 257 181 123 
3 16 15 280 
3 158 280 199 
3 158 243 280 
3 203 106 199 
3 287 192 106 
3 258 123 181 
3 204 106 123 
3 219 186 104 
3 204 123 258 
3 186 83 258 
3 287 106 204 
3 84 211 219 
3 83 287 204 
3 117 83 186 
3 103 196 159 
3 83 143 287 
3 172 130 196 
3 143 99 192 
3 169 81 214 
3 19 18 254 
3 247 109 156 
3 215 291 182 
3 214 247 169 
3 99 143 169 
3 20 19 215 
3 156 109 254 
3 202 147 282 
3 21 20 182 
3 99 169 247 
3 159 179 101 
3 143 208 169 
3 143 83 172 
3 215 109 291 
3 215 254 109 
3 109 214 291 
3 109 247 214 
3 196 253 76 
3 130 217 253 
3 143 172 103 
3 130 253 196 
3 175 76 253 
3 177 216 273 
3 153 211 84 
3 217 172 117 
3 253 217 100 
3 130 172 217 
3 103 172 196 
3 83 117 172 
3 179 159 196 
3 208 143 103 
3 164 153 231 
3 100 217 211 
3 117 211 217 
3 117 219 211 
3 221 79 231 
3 221 225 79 
3 231 292 164 
3 79 226 292 
3 226 126 292 
3 184 285 85 
3 281 102 193 
3 157 175 102 
3 184 85 126 
3 233 125 193 
3 126 85 193 
3 285 148 220 
3 209 281 125 
3 209 157 281 
3 228 155 80 
3 80 277 163 
3 80 269 125 
3 163 209 269 
3 155 189 80 
3 189 135 80 
3 266 132 90 
3 131 216 237 
3 154 228 80 
3 86 255 170 
3 76 275 179 
3 157 209 97 
3 201 136 82 
3 216 131 273 
3 131 82 273 
3 230 107 201 
3 157 275 76 
3 157 97 275 
3 275 127 179 
3 275 97 127 
3 237 97 163 
3 216 127 97 
3 216 177 127 
3 273 82 177 
3 267 159 101 
3 208 103 159 
3 198 267 139 
3 81 208 267 
3 127 101 179 
3 177 136 101 
3 215 182 20 
3 105 229 147 
3 22 21 182 
3 291 105 182 
3 291 214 105 
3 23 22 238 
3 182 238 22 
3 182 105 238 
3 24 23 147 
3 25 24 202 
3 101 136 139 
3 177 82 136 
3 207 137 88 
3 202 24 147 
3 88 137 282 
3 26 25 202 
3 183 230 82 
3 107 207 201 
3 180 107 111 
3 131 237 183 
3 82 230 201 
3 183 132 111 
3 224 132 122 
3 187 289 111 
3 202 137 26 
3 202 282 137 
3 180 261 107 
3 28 27 195 
3 180 111 289 
3 230 183 111 
3 137 27 26 
3 107 261 195 
3 180 289 30 
3 261 29 28 
3 224 187 132 
3 33 32 187 
3 261 30 29 
3 289 31 30 
3 289 32 31 
3 266 122 132 
3 34 33 224 
3 35 34 122 
3 33 187 224 
3 122 34 224 
3 80 135 277 
3 189 86 135 
3 135 266 277 
3 132 183 90 
3 277 266 90 
3 135 227 266 
3 170 227 86 
3 122 266 227 
3 135 86 227 
3 188 78 141 
3 170 255 113 
3 255 297 144 
3 35 170 200 
3 122 227 170 
3 170 113 200 
3 144 274 78 
3 200 176 36 
3 43 295 44 
3 36 176 37 
3 37 176 38 
3 176 166 38 
3 265 295 43 
3 38 166 39 
3 271 40 39 
3 166 160 271 
3 245 141 96 
3 41 160 265 
3 213 94 188 
3 271 160 41 
3 271 41 40 
3 218 144 188 
3 239 222 89 
3 188 141 213 
3 78 288 142 
3 160 213 114 
3 160 94 213 
3 255 144 113 
3 255 86 297 
3 218 188 94 
3 144 78 188 
3 166 218 94 
3 113 144 218 
3 39 166 271 
3 176 218 166 
3 220 110 154 
3 116 189 155 
3 228 299 89 
3 274 144 297 
3 274 297 116 
3 86 189 297 
3 285 220 85 
3 148 110 220 
3 58 57 148 
3 56 165 57 
3 110 228 154 
3 110 299 228 
3 148 57 110 
3 274 222 78 
3 165 299 110 
3 294 121 165 
3 239 278 134 
3 155 89 116 
3 299 165 89 
3 78 222 134 
3 89 165 239 
3 116 222 274 
3 116 89 222 
3 93 134 278 
3 222 239 134 
3 142 288 93 
3 78 134 288 
3 152 278 232 
3 239 165 121 
3 290 162 152 
3 93 288 134 
3 152 93 278 
3 246 142 93 
3 55 232 294 
3 56 294 165 
3 56 55 294 
3 54 232 55 
3 278 121 232 
3 54 152 232 
3 53 52 290 
3 162 290 51 
3 53 290 152 
3 52 51 290 
3 234 162 50 
3 50 162 51 
3 246 93 162 
3 234 50 49 
3 236 234 49 
3 246 162 234 
3 236 49 48 
3 47 236 48 
3 120 246 234 
3 173 268 47 
3 120 240 246 
3 96 141 142 
3 268 240 120 
3 240 142 246 
3 236 268 120 
3 96 142 240 
3 47 268 236 
3 96 240 268 
3 114 245 298 
3 213 141 245 
3 265 114 295 
3 265 160 114 
3 114 185 295 
3 96 268 173 
3 265 43 42 
3 45 173 46 
3 298 96 173 
3 173 47 46 
3 185 298 173 
3 185 114 298 
3 185 45 44 
