ply
format ascii 1.0
comment VCGLIB generated
element vertex 500
property float x
property float y
property float z
element face 872
property list uchar int vertex_indices
end_header
0.4792845 1.041207 0 
0.4815505 1.070948 0 
0.4842989 1.099586 0 
0.4880089 1.128125 0 
0.4927253 1.15596 0 
0.4987015 1.184685 0 
0.5056567 1.212623 0 
0.5132098 1.238921 0 
0.5225442 1.267685 0 
0.5324569 1.294637 0 
0.5434864 1.321163 0 
0.5551857 1.346248 0 
0.5676424 1.370736 0 
0.5820718 1.396639 0 
0.5977794 1.421732 0 
0.6143159 1.445397 0 
0.6320074 1.468549 0 
0.6492183 1.488923 0 
0.6694747 1.510537 0 
0.6898084 1.530563 0 
0.7114966 1.549787 0 
0.7340973 1.567139 0 
0.7586972 1.583624 0 
0.7822986 1.597544 0 
0.8092659 1.610986 0 
0.8351178 1.621559 0 
0.8638287 1.631 0 
0.8918309 1.637902 0 
0.9201195 1.642834 0 
0.948697 1.645795 0 
0.9774353 1.646434 0 
1.006146 1.64461 0 
1.034664 1.640657 0 
1.061541 1.635119 0 
1.089721 1.627155 0 
1.115008 1.618017 0 
1.144056 1.605307 0 
1.16947 1.591797 0 
1.192793 1.577117 0 
1.216434 1.560125 0 
1.237277 1.543147 0 
1.259122 1.522882 0 
1.27933 1.502542 0 
1.298413 1.481773 0 
1.317879 1.458028 0 
1.335066 1.434334 0 
1.34981 1.411917 0 
1.365387 1.385946 0 
1.379035 1.360719 0 
1.391051 1.336102 0 
1.403185 1.308454 0 
1.413732 1.281532 0 
1.423229 1.254439 0 
1.431103 1.228917 0 
1.438953 1.199202 0 
1.444813 1.17307 0 
1.450557 1.142918 0 
1.454855 1.115182 0 
1.458154 1.086643 0 
1.460547 1.057294 0 
1.462395 1.028596 0 
1.463255 0.9998523 0 
1.462605 0.9710966 0 
1.46079 0.9423858 0 
1.458387 0.9140424 0 
1.455073 0.8851323 0 
1.450739 0.8568614 0 
1.445353 0.8284053 0 
1.438998 0.8003246 0 
1.431644 0.7724873 0 
1.424192 0.7478401 0 
1.41417 0.7189206 0 
1.403994 0.692434 0 
1.392086 0.6651839 0 
1.379875 0.6402041 0 
1.366485 0.6152139 0 
1.351657 0.5900406 0 
1.335863 0.5658424 0 
1.319036 0.5424899 0 
1.301288 0.5203515 0 
1.281812 0.4987735 0 
1.261505 0.4782601 0 
1.240664 0.4589119 0 
1.216883 0.4395123 0 
1.196513 0.424804 0 
1.170068 0.407864 0 
1.145343 0.3944089 0 
1.117817 0.3820064 0 
1.090954 0.3719989 0 
1.063637 0.3641109 0 
1.035309 0.3581734 0 
1.006863 0.3541856 0 
0.9781886 0.352346 0 
0.9494389 0.35311 0 
0.9208203 0.3561618 0 
0.8934007 0.3608897 0 
0.8668341 0.3673737 0 
0.8370607 0.3769505 0 
0.8113366 0.3872252 0 
0.7846792 0.4002686 0 
0.7605268 0.414325 0 
0.7365433 0.4303347 0 
0.7133806 0.4478845 0 
0.6928067 0.4655935 0 
0.6716185 0.4860335 0 
0.6522964 0.5063683 0 
0.6322216 0.5299345 0 
0.6155311 0.5519039 0 
0.5988197 0.5760294 0 
0.5846561 0.598255 0 
0.5688116 0.6258969 0 
0.5564167 0.6499807 0 
0.5439411 0.6765171 0 
0.5331122 0.702416 0 
0.5233248 0.7288046 0 
0.5137616 0.7581674 0 
0.5063254 0.7843006 0 
0.499299 0.8122265 0 
0.4930756 0.8418787 0 
0.4882401 0.870285 0 
0.4843915 0.8987672 0 
0.4815841 0.9273821 0 
0.4794058 0.9557807 0 
0.4779428 0.9847744 0 
0.4779301 1.013532 0 
0.4792565 1.040807 0 
0.9702392 0.9940538 0 
0.9620664 1.318272 0 
0.9853861 0.6743456 0 
1.179386 1.150539 0 
0.7629351 0.8313181 0 
1.185948 0.8522187 0 
0.7499082 1.136101 0 
1.147802 1.361108 0 
0.7621219 1.326801 0 
1.170418 0.6648729 0 
0.8025298 0.6151733 0 
0.6569846 0.9810212 0 
1.284412 1.007746 0 
0.9186381 1.155902 0 
0.8754463 1.458217 0 
1.024207 0.8316904 0 
1.012971 0.5169683 0 
1.032818 1.47223 0 
0.8081076 0.9760593 0 
1.119289 0.9928105 0 
0.6903124 0.711275 0 
1.256368 1.267016 0 
1.053856 1.213653 0 
0.8891284 0.7769035 0 
1.280428 0.7479864 0 
0.6304265 0.8495477 0 
0.6602622 1.240999 0 
0.8766751 0.5067547 0 
1.315737 1.150449 0 
0.616983 1.109394 0 
1.318557 0.8841024 0 
1.136987 0.5408586 0 
1.036384 1.093367 0 
0.9061672 0.8949128 0 
0.8474463 1.246477 0 
0.7618943 1.448058 0 
1.142599 1.479745 0 
1.092625 0.7410957 0 
0.8459503 1.077471 0 
0.7949483 0.7213425 0 
1.152199 1.255798 0 
0.9422247 1.538321 0 
1.071438 0.6182168 0 
1.252998 1.367006 0 
0.7015435 0.6122374 0 
0.9021953 0.6149458 0 
1.268394 0.6478264 0 
0.8623808 1.359962 0 
1.0989 0.8967896 0 
1.197113 1.054418 0 
1.051278 1.361628 0 
0.7321425 1.038623 0 
0.6723114 1.356709 0 
1.366695 1.06261 0 
0.72434 0.9176129 0 
0.5759676 1.026547 0 
1.198298 0.9449561 0 
0.776835 0.5275123 0 
1.372273 0.9712785 0 
0.9450103 0.4432347 0 
0.9505529 1.408779 0 
0.751186 1.225935 0 
0.5709288 0.9256156 0 
1.180388 0.7569908 0 
1.224464 0.5665509 0 
1.077071 0.4601614 0 
0.6112979 0.7441097 0 
0.9660618 1.226035 0 
1.01746 0.9172423 0 
0.9401098 1.074784 0 
0.5874519 1.194912 0 
1.120686 1.091113 0 
1.342153 1.234948 0 
1.02735 1.557596 0 
0.8464815 1.535553 0 
0.9829373 0.7604293 0 
0.8274727 1.163475 0 
1.217766 1.441012 0 
1.351798 0.7908686 0 
0.8203633 0.88815 0 
0.8910117 0.9823513 0 
0.6835312 0.7888498 0 
1.115986 0.818492 0 
0.980598 0.597034 0 
1.266707 1.087947 0 
1.269002 0.823552 0 
0.9117548 0.7045339 0 
0.6801013 1.162896 0 
1.077059 1.292142 0 
1.247423 1.193641 0 
1.318818 1.304846 0 
0.9410272 0.8259909 0 
0.620205 1.299944 0 
1.248019 0.89302 0 
1.048339 0.9960736 0 
0.9893215 1.149385 0 
0.9411486 0.5361456 0 
1.115188 1.178559 0 
0.6911726 1.424157 0 
0.6847661 1.092153 0 
0.6408044 0.6468327 0 
1.10379 1.5486 0 
1.202956 1.311348 0 
1.012585 0.4231028 0 
1.381987 1.132668 0 
0.8165771 0.4609474 0 
0.5776394 0.8060204 0 
1.080604 1.423293 0 
1.386504 0.8857623 0 
1.33972 0.7135876 0 
0.8011383 1.39308 0 
0.9058759 1.281388 0 
0.6394351 0.9163709 0 
0.8307614 0.8094422 0 
0.5491126 1.087363 0 
1.049412 0.6895801 0 
1.015549 1.268912 0 
1.152439 0.4727478 0 
0.696647 1.29644 0 
0.9589472 1.473216 0 
0.8486314 0.5694354 0 
0.7487559 0.6564146 0 
0.7731493 1.515626 0 
0.8817829 0.4301307 0 
0.7002753 0.8510573 0 
1.297981 0.945133 0 
1.167242 0.6009245 0 
1.220893 0.7040952 0 
0.8606868 0.6663804 0 
1.073271 0.5398308 0 
0.7144826 0.5502581 0 
0.7837572 1.074419 0 
0.8255445 1.304244 0 
0.7466121 0.9744224 0 
1.11155 0.6805707 0 
1.014641 1.410031 0 
0.5511682 0.868491 0 
0.7397391 1.3883 0 
0.9551129 0.9300168 0 
0.641921 1.050695 0 
0.8935336 1.578664 0 
1.041083 0.7709302 0 
0.8208406 1.479852 0 
1.281132 0.5906835 0 
0.892558 1.209248 0 
1.381236 1.191244 0 
1.205924 1.234457 0 
1.206107 0.5051482 0 
1.217699 1.001063 0 
0.7397651 0.7399836 0 
0.8606057 0.9293312 0 
1.089929 1.043219 0 
0.8753124 0.8447273 0 
1.075188 1.134051 0 
1.14449 0.9294856 0 
0.968016 0.8756795 0 
1.143366 1.416675 0 
1.082472 0.9509555 0 
1.282665 1.41524 0 
0.8612081 0.7266883 0 
1.218352 0.8027892 0 
0.918586 1.36445 0 
1.23296 1.130217 0 
0.7849194 1.268076 0 
0.8742399 1.123415 0 
1.165757 1.528455 0 
0.7186315 1.480156 0 
0.6021776 0.6910565 0 
1.320867 1.090147 0 
1.195997 1.392444 0 
0.9980865 1.35745 0 
0.5454983 0.9722547 0 
1.216302 0.6380614 0 
0.6041586 0.9816664 0 
1.337767 1.011229 0 
0.8489044 1.013764 0 
1.41006 1.025045 0 
1.126143 1.310486 0 
0.9340276 0.6571261 0 
1.322545 0.6643412 0 
0.6086457 1.24833 0 
1.073387 1.504839 0 
0.6324167 0.7974523 0 
0.921468 1.026509 0 
1.112342 0.5865918 0 
1.007992 1.05045 0 
0.7718887 0.7806519 0 
0.5459551 1.138605 0 
0.7659269 0.8875859 0 
0.8070582 1.210473 0 
0.6656665 0.5685485 0 
1.302259 1.20346 0 
1.317444 1.369724 0 
1.001418 1.514534 0 
0.8542706 1.41267 0 
0.9232677 0.4885125 0 
1.207107 1.500287 0 
0.7004827 1.211738 0 
1.056734 0.870484 0 
0.6213074 1.349559 0 
1.247313 0.9511239 0 
1.396516 0.8353087 0 
1.317005 0.8343807 0 
1.160546 1.196624 0 
0.7823236 0.9347311 0 
0.7252879 0.5018487 0 
1.273098 1.321463 0 
1.029678 0.4707838 0 
1.152143 1.036258 0 
0.6328436 1.178164 0 
0.7330735 1.09029 0 
1.109509 0.4959675 0 
1.409176 1.09273 0 
1.167814 1.103756 0 
0.8989587 1.500213 0 
1.104715 1.249855 0 
0.8013418 0.6629685 0 
0.5250289 1.021671 0 
1.166562 0.9864629 0 
1.142858 0.7275541 0 
0.7760608 1.011908 0 
1.2806 0.7003832 0 
0.8049041 1.117021 0 
1.103173 1.377144 0 
1.024061 0.6174202 0 
0.974017 0.4903962 0 
0.6583376 0.7471092 0 
0.8932206 0.5542004 0 
0.939592 0.7789133 0 
0.7568383 0.5708548 0 
1.034487 1.170823 0 
1.13254 0.6324819 0 
1.409344 0.9265262 0 
0.9822147 1.56962 0 
0.6836687 1.030258 0 
0.5991049 0.8888118 0 
1.007719 0.7148358 0 
0.7709981 0.4686132 0 
0.7701069 1.182735 0 
0.8929169 1.062769 0 
0.872398 1.314927 0 
1.160564 0.8072588 0 
1.032884 0.5614942 0 
0.7170485 1.337445 0 
0.8289005 0.5281052 0 
1.065707 0.4159421 0 
0.8046994 1.553785 0 
0.9892005 1.091498 0 
0.9344088 1.597625 0 
0.9431177 0.3982538 0 
0.5952929 1.069981 0 
0.7042838 0.959305 0 
1.347949 0.9179779 0 
0.5689599 0.7586439 0 
0.5263125 0.9236007 0 
1.303424 0.7919877 0 
1.135177 0.8585498 0 
1.037889 1.312703 0 
1.065268 1.590308 0 
0.5739073 1.275565 0 
1.418478 0.9717309 0 
0.7268879 1.174148 0 
1.079755 0.7920311 0 
1.362733 1.291045 0 
1.253092 1.038651 0 
1.008658 0.9726952 0 
1.111707 0.4254286 0 
0.9024431 1.405171 0 
0.8203356 1.348009 0 
1.381944 0.7592435 0 
1.012001 0.8735983 0 
0.6438414 0.7039391 0 
1.012159 1.601288 0 
0.9812689 0.5535367 0 
0.6819797 0.9073343 0 
0.9477081 0.7289646 0 
0.9305015 0.5782823 0 
1.243458 1.476544 0 
1.012065 1.225759 0 
1.204785 0.8911855 0 
0.8391356 0.7638826 0 
0.6327186 1.396465 0 
0.7571673 0.6141962 0 
1.317766 0.6216076 0 
0.7455181 1.285226 0 
1.119575 0.7745213 0 
1.237679 0.7445711 0 
0.9674901 1.036829 0 
0.9100274 0.9374216 0 
0.9167672 1.447739 0 
0.8490455 1.581357 0 
1.308913 1.26139 0 
0.9410009 1.116898 0 
0.9740869 1.276066 0 
0.8045354 0.5623559 0 
1.384152 1.234605 0 
0.5505187 1.21973 0 
1.35696 0.8491268 0 
1.253642 0.5295906 0 
1.280515 1.128067 0 
0.9380463 1.195177 0 
0.7010462 1.255012 0 
1.118265 1.137118 0 
1.106932 1.458445 0 
1.0613 0.9143877 0 
0.7121732 0.6758225 0 
1.16292 0.8924187 0 
1.293525 1.056481 0 
1.213927 1.353527 0 
0.7239962 0.7972146 0 
0.8164575 1.03926 0 
0.8684927 1.175812 0 
0.6604853 0.6093034 0 
0.5970095 1.155105 0 
0.999348 0.7993225 0 
1.180517 0.7070968 0 
0.8102764 0.8489829 0 
1.235291 1.404745 0 
0.8335167 0.4207714 0 
0.9348754 1.251382 0 
0.7503793 0.6965614 0 
0.5706899 0.7166232 0 
0.8630756 0.4655958 0 
1.226202 0.8420272 0 
1.046073 1.038889 0 
0.8184658 1.429864 0 
0.5490259 1.178188 0 
0.6725269 0.6739556 0 
0.7114915 1.123283 0 
1.168802 1.292285 0 
1.111911 1.510451 0 
1.287002 0.9068514 0 
1.067475 0.5795676 0 
0.6263088 1.013479 0 
1.177741 1.463404 0 
0.9054345 1.100436 0 
0.5389159 0.8069012 0 
0.9574042 1.356622 0 
0.6792329 1.460805 0 
1.076658 1.178566 0 
0.9874052 1.193992 0 
1.220369 1.085078 0 
1.215201 1.271779 0 
1.190283 0.5492057 0 
1.272444 1.232324 0 
0.770349 1.364055 0 
0.9007731 0.8163258 0 
0.9266357 0.8627517 0 
1.339117 0.7549484 0 
1.084466 0.8445286 0 
0.6725699 0.8253261 0 
0.5805379 1.121076 0 
0.8842651 1.536434 0 
0.9345586 0.9818199 0 
0.8383731 0.6266993 0 
1.391969 0.795399 0 
1.340494 1.34016 0 
0.9965571 1.462881 0 
1.193198 0.4684512 0 
1.04593 1.437125 0 
1.231474 0.6039586 0 
0.6595415 1.300356 0 
0.7025771 1.386013 0 
1.209618 1.172189 0 
1.269861 1.450472 0 
1.135709 1.569162 0 
1.251413 0.7862348 0 
0.6141866 0.6204648 0 
1.091084 0.6498873 0 
1.290234 0.8605431 0 
1.009958 1.009443 0 
0.6662077 0.9454316 0 
1.068236 1.254122 0 
1.059217 0.7258671 0 
3 248 372 22 
3 10 385 218 
3 311 413 496 
3 169 434 332 
3 433 390 138 
3 201 440 354 
3 217 473 472 
3 165 446 342 
3 275 207 146 
3 314 442 205 
3 314 180 250 
3 406 285 149 
3 275 435 207 
3 352 207 308 
3 218 325 11 
3 206 276 414 
3 476 207 435 
3 459 181 299 
3 258 134 289 
3 325 218 487 
3 366 258 160 
3 161 263 236 
3 196 452 439 
3 262 188 380 
3 140 415 340 
3 340 245 167 
3 290 164 461 
3 416 478 266 
3 287 186 393 
3 176 383 214 
3 27 374 28 
3 443 295 434 
3 274 390 175 
3 287 463 186 
3 341 465 223 
3 261 485 483 
3 147 468 272 
3 271 317 154 
3 344 274 334 
3 479 206 414 
3 472 354 217 
3 303 214 341 
3 221 139 418 
3 252 469 190 
3 267 163 388 
3 402 171 353 
3 184 302 300 
3 334 175 339 
3 352 397 146 
3 342 408 136 
3 226 438 453 
3 255 458 368 
3 453 438 170 
3 249 96 95 
3 420 370 246 
3 375 249 95 
3 402 353 222 
3 183 256 331 
3 185 321 249 
3 304 171 402 
3 153 370 448 
3 254 480 171 
3 480 246 171 
3 355 420 136 
3 254 304 212 
3 149 285 212 
3 446 275 146 
3 276 206 144 
3 400 151 250 
3 278 472 473 
3 239 312 406 
3 126 391 496 
3 473 159 278 
3 221 426 139 
3 309 206 479 
3 360 177 225 
3 314 250 130 
3 364 187 387 
3 164 436 301 
3 459 376 181 
3 299 188 238 
3 238 151 400 
3 308 207 476 
3 262 232 151 
3 352 146 207 
3 293 111 110 
3 379 114 447 
3 232 308 151 
3 360 377 259 
3 181 240 343 
3 315 437 160 
3 240 477 313 
3 187 315 289 
3 187 427 323 
3 164 348 257 
3 454 225 336 
3 336 257 132 
3 289 410 187 
3 225 213 155 
3 422 196 306 
3 213 387 323 
3 387 187 323 
3 6 452 422 
3 385 422 306 
3 11 10 218 
3 16 15 464 
3 372 200 416 
3 407 488 224 
3 161 224 263 
3 224 15 407 
3 415 140 393 
3 471 369 134 
3 268 372 248 
3 416 266 26 
3 200 268 340 
3 451 320 140 
3 266 374 27 
3 398 31 30 
3 237 366 160 
3 270 437 139 
3 167 319 359 
3 485 233 429 
3 287 173 366 
3 418 195 373 
3 258 394 134 
3 315 187 364 
3 290 437 202 
3 139 426 270 
3 257 348 132 
3 164 290 348 
3 365 461 164 
3 139 437 290 
3 279 465 356 
3 195 365 309 
3 158 279 356 
3 419 383 127 
3 166 303 341 
3 210 390 433 
3 227 384 199 
3 483 319 245 
3 465 341 148 
3 133 295 282 
3 282 349 133 
3 261 176 233 
3 199 319 307 
3 374 359 30 
3 398 384 32 
3 291 38 491 
3 33 32 384 
3 162 456 429 
3 227 199 307 
3 282 460 162 
3 460 203 322 
3 470 317 417 
3 329 223 129 
3 384 227 35 
3 332 417 216 
3 210 288 467 
3 322 203 403 
3 271 421 198 
3 284 169 318 
3 434 295 133 
3 198 389 417 
3 198 417 317 
3 338 179 302 
3 489 272 329 
3 339 175 467 
3 216 417 389 
3 197 334 339 
3 182 344 280 
3 339 467 288 
3 175 390 467 
3 358 64 63 
3 338 56 230 
3 61 386 62 
3 481 395 69 
3 386 358 63 
3 381 328 211 
3 326 251 138 
3 378 358 184 
3 138 390 274 
3 338 302 59 
3 179 433 300 
3 450 220 277 
3 326 138 274 
3 220 391 283 
3 281 473 217 
3 430 283 391 
3 145 277 220 
3 440 141 281 
3 194 391 264 
3 208 382 475 
3 475 174 324 
3 163 345 411 
3 457 156 378 
3 486 252 190 
3 367 286 131 
3 357 168 310 
3 333 229 371 
3 273 157 243 
3 142 368 399 
3 310 458 255 
3 351 321 185 
3 85 243 392 
3 92 229 375 
3 392 191 371 
3 91 229 92 
3 395 474 235 
3 273 243 484 
3 337 191 392 
3 82 81 273 
3 135 345 260 
3 395 71 70 
3 484 243 84 
3 252 486 298 
3 412 286 189 
3 84 83 484 
3 305 235 347 
3 316 256 170 
3 256 355 170 
3 170 408 247 
3 493 108 438 
3 107 106 316 
3 192 397 352 
3 293 226 397 
3 110 493 293 
3 109 493 110 
3 316 108 107 
3 293 493 226 
3 109 108 493 
3 493 438 226 
3 316 105 256 
3 104 256 105 
3 246 353 171 
3 108 316 438 
3 106 105 316 
3 453 170 431 
3 438 316 170 
3 254 342 480 
3 431 170 247 
3 104 331 256 
3 370 231 448 
3 170 355 408 
3 183 363 231 
3 104 103 331 
3 99 98 444 
3 103 102 331 
3 102 363 331 
3 101 363 102 
3 100 363 101 
3 99 231 100 
3 97 444 98 
3 100 231 363 
3 444 96 249 
3 222 153 321 
3 444 97 96 
3 231 444 448 
3 231 99 444 
3 375 185 249 
3 448 444 249 
3 375 95 94 
3 229 185 375 
3 90 229 91 
3 333 351 229 
3 321 448 249 
3 229 351 185 
3 222 353 153 
3 93 375 94 
3 93 92 375 
3 321 153 448 
3 353 246 153 
3 351 142 399 
3 209 304 402 
3 368 350 209 
3 222 321 351 
3 222 399 402 
3 362 499 267 
3 304 254 171 
3 342 247 408 
3 168 494 241 
3 212 285 254 
3 136 420 246 
3 370 183 231 
3 480 136 246 
3 355 256 183 
3 246 370 153 
3 420 183 370 
3 355 183 420 
3 331 363 183 
3 285 165 254 
3 446 165 275 
3 342 136 480 
3 408 355 136 
3 431 146 453 
3 275 312 435 
3 239 130 312 
3 250 476 435 
3 431 446 146 
3 431 247 446 
3 342 446 247 
3 342 254 165 
3 406 165 285 
3 312 275 165 
3 278 442 239 
3 312 165 406 
3 401 212 304 
3 401 149 212 
3 149 401 354 
3 399 209 402 
3 401 201 354 
3 440 281 217 
3 149 239 406 
3 442 130 239 
3 472 149 354 
3 472 239 149 
3 472 278 239 
3 205 330 314 
3 159 276 278 
3 205 442 278 
3 194 264 281 
3 264 159 281 
3 159 264 414 
3 281 396 194 
3 278 276 205 
3 206 309 301 
3 281 159 473 
3 414 276 159 
3 276 330 205 
3 177 336 225 
3 435 130 250 
3 435 312 130 
3 442 314 130 
3 400 497 238 
3 330 180 314 
3 177 346 257 
3 400 377 497 
3 180 330 259 
3 180 259 377 
3 144 301 436 
3 180 400 250 
3 180 377 400 
3 297 380 188 
3 361 151 238 
3 299 238 497 
3 188 361 238 
3 380 120 119 
3 462 379 232 
3 262 361 188 
3 262 151 361 
3 151 476 250 
3 151 308 476 
3 232 192 308 
3 397 226 453 
3 308 192 352 
3 447 112 293 
3 146 397 453 
3 192 379 447 
3 192 293 397 
3 112 111 293 
3 192 447 293 
3 379 462 115 
3 462 232 262 
3 379 192 232 
3 118 462 262 
3 116 115 462 
3 113 447 114 
3 112 447 113 
3 114 379 115 
3 117 462 118 
3 116 462 117 
3 119 262 380 
3 118 262 119 
3 299 297 188 
3 297 122 380 
3 343 124 123 
3 181 343 297 
3 121 380 122 
3 120 380 121 
3 122 297 123 
3 123 297 343 
3 439 477 155 
3 240 1 343 
3 125 343 0 
3 376 240 181 
3 125 124 343 
3 137 459 299 
3 181 297 299 
3 497 137 299 
3 265 376 459 
3 377 137 497 
3 360 259 177 
3 265 360 225 
3 346 436 257 
3 137 360 459 
3 225 155 265 
3 459 360 265 
3 137 377 360 
3 477 240 376 
3 313 452 4 
3 155 477 376 
3 452 6 5 
3 265 155 376 
3 225 454 213 
3 335 213 323 
3 132 348 364 
3 155 335 439 
3 152 427 487 
3 155 213 335 
3 454 387 213 
3 439 452 313 
3 152 335 323 
3 3 240 313 
3 3 313 4 
3 477 439 313 
3 0 343 1 
3 1 240 2 
3 2 240 3 
3 4 452 5 
3 385 10 9 
3 8 7 422 
3 452 196 422 
3 439 335 196 
3 335 306 196 
3 178 488 407 
3 6 422 7 
3 422 385 8 
3 325 178 407 
3 8 385 9 
3 407 15 14 
3 306 218 385 
3 218 152 487 
3 13 407 14 
3 13 12 325 
3 13 325 407 
3 12 11 325 
3 306 152 218 
3 178 369 488 
3 19 18 292 
3 17 16 464 
3 464 18 17 
3 464 292 18 
3 248 21 20 
3 292 20 19 
3 20 292 248 
3 224 488 263 
3 451 161 236 
3 369 178 244 
3 487 178 325 
3 487 427 244 
3 464 224 292 
3 464 15 224 
3 335 152 306 
3 323 427 152 
3 487 244 178 
3 427 187 410 
3 488 369 263 
3 410 289 134 
3 471 134 394 
3 369 244 410 
3 393 320 173 
3 236 471 394 
3 292 161 248 
3 320 393 140 
3 268 161 451 
3 292 224 161 
3 263 471 236 
3 263 369 471 
3 248 22 21 
3 372 23 22 
3 372 24 23 
3 372 416 24 
3 161 268 248 
3 451 140 268 
3 268 200 372 
3 268 140 340 
3 25 416 26 
3 478 167 266 
3 24 416 25 
3 200 478 416 
3 266 27 26 
3 374 30 29 
3 266 167 374 
3 340 415 245 
3 374 29 28 
3 167 245 319 
3 186 463 296 
3 236 320 451 
3 236 394 173 
3 478 340 167 
3 478 200 340 
3 393 173 287 
3 320 236 173 
3 415 186 245 
3 415 393 186 
3 242 383 419 
3 463 287 127 
3 404 419 193 
3 237 160 270 
3 466 426 221 
3 445 419 237 
3 404 193 466 
3 445 237 270 
3 193 445 426 
3 160 437 270 
3 127 237 419 
3 127 287 237 
3 426 445 270 
3 193 419 445 
3 287 366 237 
3 173 394 366 
3 369 410 134 
3 244 427 410 
3 160 258 289 
3 366 394 258 
3 454 132 387 
3 202 437 315 
3 289 315 160 
3 364 348 202 
3 364 202 315 
3 348 290 202 
3 164 301 365 
3 436 346 144 
3 387 132 364 
3 454 336 132 
3 177 257 336 
3 436 164 257 
3 259 346 177 
3 259 330 144 
3 259 144 346 
3 330 276 144 
3 144 206 301 
3 414 264 479 
3 391 126 264 
3 309 365 301 
3 195 461 365 
3 139 290 461 
3 126 309 479 
3 413 195 309 
3 158 221 373 
3 139 461 418 
3 373 195 413 
3 418 461 195 
3 309 126 413 
3 479 264 126 
3 220 496 391 
3 413 126 496 
3 158 311 450 
3 373 413 311 
3 311 158 373 
3 129 339 288 
3 158 450 277 
3 311 496 450 
3 145 220 283 
3 450 496 220 
3 174 432 280 
3 274 175 334 
3 145 334 277 
3 145 344 334 
3 283 280 145 
3 182 219 326 
3 277 197 158 
3 277 334 197 
3 197 279 158 
3 197 339 428 
3 129 428 339 
3 279 197 428 
3 356 465 148 
3 279 428 465 
3 341 223 329 
3 465 428 223 
3 215 470 272 
3 223 428 129 
3 489 215 272 
3 468 455 166 
3 166 341 329 
3 498 148 341 
3 272 166 329 
3 455 303 166 
3 498 242 404 
3 383 296 127 
3 404 466 356 
3 221 158 356 
3 214 498 341 
3 214 242 498 
3 373 221 418 
3 466 193 426 
3 356 466 221 
3 356 148 404 
3 498 404 148 
3 242 419 404 
3 261 483 186 
3 463 127 296 
3 214 383 242 
3 214 349 176 
3 282 233 349 
3 296 383 176 
3 349 233 176 
3 429 307 143 
3 296 261 186 
3 296 176 261 
3 319 483 143 
3 261 233 485 
3 186 483 245 
3 143 307 319 
3 30 359 398 
3 374 167 359 
3 31 398 32 
3 359 319 199 
3 384 34 33 
3 398 199 384 
3 398 359 199 
3 485 143 483 
3 485 429 143 
3 456 227 307 
3 491 35 227 
3 384 35 34 
3 456 291 227 
3 38 37 491 
3 491 36 35 
3 227 291 491 
3 162 460 291 
3 491 37 36 
3 322 291 460 
3 162 429 282 
3 429 456 307 
3 162 291 456 
3 460 282 295 
3 429 233 282 
3 228 133 455 
3 349 214 303 
3 303 133 349 
3 303 455 133 
3 133 228 434 
3 455 468 228 
3 332 434 228 
3 169 443 434 
3 468 147 228 
3 318 46 284 
3 318 169 332 
3 443 203 295 
3 490 203 443 
3 460 295 203 
3 284 443 169 
3 284 490 443 
3 284 44 490 
3 39 291 322 
3 291 39 38 
3 322 40 39 
3 322 41 40 
3 490 403 203 
3 41 322 403 
3 46 45 284 
3 42 403 490 
3 216 318 332 
3 482 49 48 
3 403 42 41 
3 490 43 42 
3 490 44 43 
3 284 45 44 
3 318 47 46 
3 318 482 47 
3 216 482 318 
3 216 389 482 
3 482 48 47 
3 55 54 271 
3 49 482 389 
3 389 50 49 
3 389 51 50 
3 421 53 52 
3 271 54 53 
3 271 230 55 
3 53 421 271 
3 51 389 421 
3 271 198 317 
3 421 389 198 
3 421 52 51 
3 332 147 417 
3 489 329 129 
3 147 272 470 
3 468 166 272 
3 417 147 470 
3 332 228 147 
3 288 489 129 
3 288 425 215 
3 288 215 489 
3 317 470 215 
3 230 154 294 
3 317 215 154 
3 230 294 179 
3 425 288 210 
3 390 210 467 
3 294 154 425 
3 294 425 210 
3 154 215 425 
3 300 138 251 
3 179 294 433 
3 300 433 138 
3 294 210 433 
3 378 234 358 
3 302 179 300 
3 56 338 57 
3 55 230 56 
3 271 154 230 
3 57 338 58 
3 230 179 338 
3 338 59 58 
3 302 60 59 
3 302 61 60 
3 302 386 61 
3 251 457 378 
3 63 62 386 
3 423 204 327 
3 65 64 358 
3 184 358 386 
3 234 65 358 
3 234 66 65 
3 234 327 66 
3 395 70 69 
3 327 481 68 
3 68 481 69 
3 347 150 412 
3 67 327 68 
3 423 234 156 
3 66 327 67 
3 423 156 328 
3 495 328 156 
3 211 492 381 
3 481 204 395 
3 298 253 135 
3 395 204 474 
3 481 327 204 
3 204 381 474 
3 412 253 347 
3 449 211 495 
3 492 150 381 
3 474 381 150 
3 204 328 381 
3 449 219 405 
3 495 156 457 
3 449 495 219 
3 211 328 495 
3 204 423 328 
3 327 234 423 
3 302 184 386 
3 300 251 184 
3 326 457 251 
3 219 495 457 
3 251 378 184 
3 156 234 378 
3 344 182 274 
3 219 457 326 
3 432 405 182 
3 449 286 211 
3 131 449 405 
3 189 411 345 
3 432 131 405 
3 382 208 367 
3 280 432 182 
3 382 131 432 
3 219 182 405 
3 326 274 182 
3 145 280 344 
3 283 430 174 
3 324 194 396 
3 430 391 194 
3 324 430 194 
3 174 280 283 
3 141 324 396 
3 475 382 174 
3 141 475 324 
3 388 411 208 
3 324 174 430 
3 382 432 174 
3 475 141 388 
3 201 362 267 
3 354 440 217 
3 267 388 141 
3 281 141 396 
3 440 267 141 
3 362 201 401 
3 267 440 201 
3 304 128 401 
3 499 163 267 
3 128 350 241 
3 241 260 499 
3 163 411 388 
3 189 253 412 
3 388 208 475 
3 411 367 208 
3 189 367 411 
3 131 382 367 
3 211 286 492 
3 449 131 286 
3 367 189 286 
3 345 441 189 
3 492 412 150 
3 492 286 412 
3 441 135 253 
3 310 157 252 
3 357 310 252 
3 157 469 252 
3 135 260 357 
3 458 350 368 
3 163 260 345 
3 163 499 260 
3 135 357 252 
3 260 494 357 
3 241 494 260 
3 168 357 494 
3 401 128 362 
3 304 209 128 
3 362 241 499 
3 362 128 241 
3 241 350 168 
3 128 209 350 
3 333 255 142 
3 458 168 350 
3 142 255 368 
3 310 168 458 
3 392 371 88 
3 191 333 371 
3 351 399 222 
3 368 209 399 
3 333 142 351 
3 333 191 255 
3 371 229 90 
3 371 90 89 
3 371 89 88 
3 87 392 88 
3 243 337 392 
3 337 255 191 
3 157 310 255 
3 157 337 243 
3 157 255 337 
3 243 85 84 
3 392 87 86 
3 392 86 85 
3 82 484 83 
3 273 469 157 
3 190 469 273 
3 409 269 77 
3 82 273 484 
3 81 424 273 
3 305 172 409 
3 190 273 424 
3 424 269 190 
3 172 253 298 
3 189 441 253 
3 345 135 441 
3 252 298 135 
3 486 172 298 
3 172 347 253 
3 235 150 347 
3 190 269 486 
3 269 409 172 
3 486 269 172 
3 424 81 80 
3 73 305 74 
3 269 424 79 
3 172 305 347 
3 409 75 305 
3 395 235 71 
3 474 150 235 
3 235 72 71 
3 235 305 73 
3 235 73 72 
3 305 75 74 
3 409 77 76 
3 409 76 75 
3 424 80 79 
3 269 79 78 
3 269 78 77 
